<?xml version="1.0" standalone="no"?><!DOCTYPE svg PUBLIC "-//W3C//DTD SVG 1.1//EN" "http://www.w3.org/Graphics/SVG/1.1/DTD/svg11.dtd"><svg t="1716538273814" class="icon" viewBox="0 0 1136 1024" version="1.1" xmlns="http://www.w3.org/2000/svg" p-id="15603" xmlns:xlink="http://www.w3.org/1999/xlink" width="221.875" height="200"><path d="M28.672 375.808S-43.008 101.376 40.96 65.536s250.88 22.528 250.88 22.528S99.328 242.688 28.672 375.808z m966.656 0s71.68-274.432-12.288-310.272-250.88 22.528-250.88 22.528 192.512 154.624 263.168 287.744z" fill="#ffffff" p-id="15604" data-spm-anchor-id="a313x.search_index.0.i31.6b983a81iuIOBC" class="selected"></path><path d="M1024 520.192c0 303.104-229.376 382.976-512 382.976S0 823.296 0 520.192C0 245.76 229.376 3.072 512 3.072s512 242.688 512 517.12z" fill="#ffffff" p-id="15605" data-spm-anchor-id="a313x.search_index.0.i32.6b983a81iuIOBC" class="selected"></path><path d="M512 832.512c270.336 0 492.544-73.728 510.976-346.112C1004.544 225.28 782.336 3.072 512 3.072S19.456 225.28 1.024 485.376C19.456 758.784 241.664 832.512 512 832.512z" fill="#ffffff" p-id="15606" data-spm-anchor-id="a313x.search_index.0.i24.6b983a81iuIOBC" class="selected"></path><path d="M92.16 495.616a102.4 60.416 0 1 0 204.8 0 102.4 60.416 0 1 0-204.8 0zM727.04 493.568a102.4 60.416 0 1 0 204.8 0 102.4 60.416 0 1 0-204.8 0z" fill="#2c2c2c" p-id="15607" data-spm-anchor-id="a313x.search_index.0.i33.6b983a81iuIOBC" class=""></path><path d="M215.04 412.672a71.68 71.68 0 1 0 143.36 0 71.68 71.68 0 1 0-143.36 0z" fill="#ffffff" p-id="15608" data-spm-anchor-id="a313x.search_index.0.i25.6b983a81iuIOBC" class="selected"></path><path d="M245.76 392.192a20.48 20.48 0 1 0 40.96 0 20.48 20.48 0 1 0-40.96 0z" fill="#ffffff" p-id="15609" data-spm-anchor-id="a313x.search_index.0.i29.6b983a81iuIOBC" class="selected"></path><path d="M665.6 412.672a71.68 71.68 0 1 0 143.36 0 71.68 71.68 0 1 0-143.36 0z" fill="#ffffff" p-id="15610" data-spm-anchor-id="a313x.search_index.0.i26.6b983a81iuIOBC" class="selected"></path><path d="M696.32 392.192a20.48 20.48 0 1 0 40.96 0 20.48 20.48 0 1 0-40.96 0z" fill="#ffffff" p-id="15611" data-spm-anchor-id="a313x.search_index.0.i30.6b983a81iuIOBC" class="selected"></path><path d="M655.36 590.848c0 59.392-64.512 89.088-143.36 89.088s-143.36-29.696-143.36-89.088S433.152 475.136 512 475.136s143.36 56.32 143.36 115.712z" fill="#ffffff" p-id="15612" data-spm-anchor-id="a313x.search_index.0.i27.6b983a81iuIOBC" class="selected"></path><path d="M440.32 582.656a35.84 25.6 90 1 0 51.2 0 35.84 25.6 90 1 0-51.2 0zM532.48 582.656a35.84 25.6 90 1 0 51.2 0 35.84 25.6 90 1 0-51.2 0z" fill="#ffffff" p-id="15613" data-spm-anchor-id="a313x.search_index.0.i28.6b983a81iuIOBC" class="selected"></path></svg>