<?xml version="1.0" standalone="no"?><!DOCTYPE svg PUBLIC "-//W3C//DTD SVG 1.1//EN" "http://www.w3.org/Graphics/SVG/1.1/DTD/svg11.dtd"><svg t="1716539495327" class="icon" viewBox="0 0 1027 1024" version="1.1" xmlns="http://www.w3.org/2000/svg" p-id="26904" xmlns:xlink="http://www.w3.org/1999/xlink" width="256.75" height="256"><path d="M700.846983 340.583899c0 0-68.585083-26.613011-152.851125-22.803695-12.986473 0-23.515844 10.211203-23.515844 22.803695 0 12.593735 10.529371 22.806181 23.515844 22.806181 0 0 74.472434-7.60496 152.851125 22.804938 12.986473 0 22.781324-10.211203 22.781324-22.804938C723.628307 350.793859 718.610947 345.572673 700.846983 340.583899z" fill="#272536" p-id="26905"></path><path d="M276.095228 397.240169a18.922 18.349 0 1 0 47.034175 0 18.922 18.349 0 1 0-47.034175 0Z" fill="#272536" p-id="26906"></path><path d="M514.861647 3.314664C233.709289 3.314664 5.791651 231.233544 5.791651 512.382174c0 281.151116 227.91888 509.069996 509.071239 509.069996 281.149873 0 509.068753-227.91888 509.068753-509.069996C1023.930401 231.233544 796.011521 3.314664 514.861647 3.314664zM778.775765 724.934536c-18.866366 8.696177 3.630346 66.144138-18.888738 84.602852-13.410283 15.8127-80.443054 3.474991-87.241409 6.513743-19.334918-4.198326 12.701862-35.764068-10.045905-32.336306-36.570674 10.243517-61.773057 11.537317-104.315595 11.537317-15.122921 0-30.037045-0.702207-44.688929-2.070577-4.065342-0.38031-0.0261 21.567066-13.857707 25.687092-25.365196 0.881176-49.856672 1.559769-59.995791-0.35421-32.148636 0.847619-13.82415-38.516967-22.055503-44.652886-4.88189-1.561012-9.714066-3.184165-14.491557-4.889347-8.00267 2.070577 3.673846 12.551478-8.061084 21.980933-19.782342 8.494836-84.968248 6.41183-92.566994-8.552007-12.010841-39.851781 14.352358-54.184254 7.520447-60.796182-26.606797-18.4177-49.892715-39.742411-69.044935-63.34774-38.555495-41.089653-59.419111-7.60496-94.485945-38.172699-21.436567-28.116852-5.360385-103.865685 1.677839-112.742075 14.696626-18.529556 22.264301 5.411341 34.446654-26.02266 5.099387-69.159277 40.289262-131.961409 95.406892-180.376383-26.789495-26.478784-79.195239-65.528931-22.391071-96.907004 55.05673-10.836354 163.206498 40.64223 163.206498 40.64223s63.498124-18.984437 133.400622-18.984437c198.734426 0 335.878493 126.950263 335.878493 283.529919C888.178319 603.293701 865.582179 670.995122 778.775765 724.934536z" fill="#272536" p-id="26907"></path></svg>