<?xml version="1.0" standalone="no"?><!DOCTYPE svg PUBLIC "-//W3C//DTD SVG 1.1//EN" "http://www.w3.org/Graphics/SVG/1.1/DTD/svg11.dtd"><svg t="1564480999698" class="icon" viewBox="0 0 1024 1024" version="1.1" xmlns="http://www.w3.org/2000/svg" p-id="40357" xmlns:xlink="http://www.w3.org/1999/xlink" width="16" height="16"><defs><style type="text/css"></style></defs><path d="M50 434c6 0 6 0 0 0 18 0 24-6 30-18C128 218 308 80 512 80c132 0 258 60 342 162l-84 42L932 392c12 12 36 0 36-18l12-192-84 42C806 104 662 32 512 32 284 32 86 188 32 404c0 18 6 30 18 30zM974 590c-12-6-24 6-30 18C896 806 716 950 512 950c-132 0-258-60-342-162l84-42L92 632c-12-12-36 0-36 18L44 842l84-42C218 920 362 992 512 992c228 0 426-156 480-372 0-18-6-30-18-30z" fill="" p-id="40358"></path></svg>